<?xml version="1.0" encoding="utf-8"?>
<!-- Generator: Adobe Illustrator 19.1.1, SVG Export Plug-In . SVG Version: 6.00 Build 0)  -->
<svg version="1.1" id="Слой_1" xmlns="http://www.w3.org/2000/svg" xmlns:xlink="http://www.w3.org/1999/xlink" x="0px" y="0px"
	 viewBox="0 0 43.6 38.3" style="enable-background:new 0 0 43.6 38.3;" xml:space="preserve">
<style type="text/css">
	.st0{fill:#FFFFFF;}
</style>
<g id="Edit_1">
	<path class="st0" d="M29.5,15.5v9.5c0,1.2-1,2.3-2.2,2.3H16c-1.2,0-2.2-1-2.2-2.3V13.8c0-1.2,1-2.2,2.2-2.2h9.5l-2.2,2.2H16v11.2
		h11.2v-7.3L29.5,15.5z M27.8,10.9L27,11.7l2.4,2.4l0.8-0.8L27.8,10.9z M29.4,9.3l-0.8,0.8l2.4,2.4l0.8-0.8L29.4,9.3z M19.1,19.7
		l2.4,2.4l7.2-7.2l-2.4-2.4L19.1,19.7z M18.3,22.8h2.3l-2.3-2.2V22.8z M18.3,22.8"/>
</g>
</svg>
