<?xml version="1.0" encoding="utf-8"?>
<!-- Generator: Adobe Illustrator 19.1.1, SVG Export Plug-In . SVG Version: 6.00 Build 0)  -->
<svg version="1.1" id="Слой_1" xmlns="http://www.w3.org/2000/svg" xmlns:xlink="http://www.w3.org/1999/xlink" x="0px" y="0px"
	 viewBox="0 0 45.4 43.6" style="enable-background:new 0 0 45.4 43.6;" xml:space="preserve">
<style type="text/css">
	.st0{fill:#FFFFFF;}
</style>
<g id="Icon">
	<g>
		<path class="st0" d="M24.8,17.3c1.7,0,3.1,1.4,3.1,3.1c0,1.7-1.4,3.1-3.1,3.1c-1.7,0-3.1-1.4-3.1-3.1
			C21.7,18.7,23.1,17.3,24.8,17.3L24.8,17.3z"/>
		<path class="st0" d="M24.8,30.9c-1.7,0-3.3-0.6-4.5-1.7c-0.3-0.3-0.5-0.6-0.5-1c0-1.8,1.4-3.2,3.2-3.2h3.7c1.8,0,3.2,1.4,3.2,3.2
			c0,0.4-0.2,0.8-0.5,1C28.1,30.3,26.5,30.9,24.8,30.9L24.8,30.9z"/>
		<path class="st0" d="M24.8,30.9"/>
	</g>
</g>
</svg>
