<?xml version="1.0" encoding="utf-8"?>
<!-- Generator: Adobe Illustrator 19.1.1, SVG Export Plug-In . SVG Version: 6.00 Build 0)  -->
<svg version="1.1" id="Слой_1" xmlns="http://www.w3.org/2000/svg" xmlns:xlink="http://www.w3.org/1999/xlink" x="0px" y="0px"
	 viewBox="0 0 43.6 38.3" style="enable-background:new 0 0 43.6 38.3;" xml:space="preserve">
<style type="text/css">
	.st0{fill:#FFFFFF;}
</style>
<g id="_x31_">
	<path class="st0" d="M11.8,17c-0.3,0-0.5,0.2-0.5,0.5v7.1c0,0.3,0.2,0.5,0.5,0.5h2.7c0.3,0,0.5-0.2,0.5-0.5v-7.1
		c0-0.3-0.2-0.5-0.5-0.5H11.8z M11.8,17"/>
	<path class="st0" d="M25.7,9.4v15.1c0,0.3,0.2,0.5,0.5,0.5h2.7c0.3,0,0.5-0.2,0.5-0.5V9.4c0-0.3-0.2-0.5-0.5-0.5h-2.7
		C25.9,9,25.7,9.2,25.7,9.4L25.7,9.4z M25.7,9.4"/>
	<path class="st0" d="M21.2,13.1c-0.3,0-0.5,0.2-0.5,0.5v10.9c0,0.3,0.2,0.5,0.5,0.5h2.7c0.3,0,0.5-0.2,0.5-0.5V13.6
		c0-0.3-0.2-0.5-0.5-0.5H21.2z M21.2,13.1"/>
	<path class="st0" d="M16.5,19c-0.3,0-0.5,0.2-0.5,0.5v5c0,0.3,0.2,0.5,0.5,0.5h2.7c0.3,0,0.5-0.2,0.5-0.5v-5c0-0.3-0.2-0.5-0.5-0.5
		H16.5z M16.5,19"/>
</g>
</svg>
