<?xml version="1.0" encoding="UTF-8" standalone="no"?>
<!-- Generator: Adobe Illustrator 19.1.1, SVG Export Plug-In . SVG Version: 6.00 Build 0)  -->

<svg
   xmlns:dc="http://purl.org/dc/elements/1.1/"
   xmlns:cc="http://creativecommons.org/ns#"
   xmlns:rdf="http://www.w3.org/1999/02/22-rdf-syntax-ns#"
   xmlns:svg="http://www.w3.org/2000/svg"
   xmlns="http://www.w3.org/2000/svg"
   xmlns:sodipodi="http://sodipodi.sourceforge.net/DTD/sodipodi-0.dtd"
   xmlns:inkscape="http://www.inkscape.org/namespaces/inkscape"
   version="1.1"
   id="Слой_1"
   x="0px"
   y="0px"
   viewBox="0 0 10.1 13.600001"
   xml:space="preserve"
   sodipodi:docname="icon-login.svg"
   width="10.1"
   height="13.6"
   inkscape:version="0.92.2 (unknown)"><metadata
     id="metadata119"><rdf:RDF><cc:Work
         rdf:about=""><dc:format>image/svg+xml</dc:format><dc:type
           rdf:resource="http://purl.org/dc/dcmitype/StillImage" /><dc:title></dc:title></cc:Work></rdf:RDF></metadata><defs
     id="defs117" /><sodipodi:namedview
     pagecolor="#ffffff"
     bordercolor="#666666"
     borderopacity="1"
     objecttolerance="10"
     gridtolerance="10"
     guidetolerance="10"
     inkscape:pageopacity="0"
     inkscape:pageshadow="2"
     inkscape:window-width="1323"
     inkscape:window-height="744"
     id="namedview115"
     showgrid="false"
     fit-margin-top="0"
     fit-margin-left="0"
     fit-margin-right="0"
     fit-margin-bottom="0"
     inkscape:zoom="14.266056"
     inkscape:cx="2.9000008"
     inkscape:cy="9.1000008"
     inkscape:window-x="43"
     inkscape:window-y="24"
     inkscape:window-maximized="1"
     inkscape:current-layer="Слой_1" /><style
     type="text/css"
     id="style103">
	.st0{fill:#353535;}
</style><g
     id="Icon"
     transform="translate(-19.8,-17.3)"><g
       id="g111"><path
         class="st0"
         d="m 24.8,17.3 c 1.7,0 3.1,1.4 3.1,3.1 0,1.7 -1.4,3.1 -3.1,3.1 -1.7,0 -3.1,-1.4 -3.1,-3.1 0,-1.7 1.4,-3.1 3.1,-3.1 z"
         id="path105"
         inkscape:connector-curvature="0"
         style="fill:#353535" /><path
         class="st0"
         d="m 24.8,30.9 c -1.7,0 -3.3,-0.6 -4.5,-1.7 -0.3,-0.3 -0.5,-0.6 -0.5,-1 0,-1.8 1.4,-3.2 3.2,-3.2 h 3.7 c 1.8,0 3.2,1.4 3.2,3.2 0,0.4 -0.2,0.8 -0.5,1 -1.3,1.1 -2.9,1.7 -4.6,1.7 z"
         id="path107"
         inkscape:connector-curvature="0"
         style="fill:#353535" /><path
         class="st0"
         d="M 24.8,30.9"
         id="path109"
         inkscape:connector-curvature="0"
         style="fill:#353535" /></g></g></svg>