<?xml version="1.0" encoding="utf-8"?>
<!-- Generator: Adobe Illustrator 19.1.1, SVG Export Plug-In . SVG Version: 6.00 Build 0)  -->
<svg version="1.1" id="Слой_1" xmlns="http://www.w3.org/2000/svg" xmlns:xlink="http://www.w3.org/1999/xlink" x="0px" y="0px"
	 viewBox="0 0 25.3 12.3" style="enable-background:new 0 0 25.3 12.3;" xml:space="preserve">
<style type="text/css">
	.st0{fill:#FFFFFF;stroke:#FFFFFF;stroke-width:0.25;stroke-miterlimit:10;}
</style>
<g>
	<path class="st0" d="M6.7,0.5c-0.3-0.3-0.8-0.3-1.1,0L0.4,5.7C0.2,5.8,0.1,6,0.1,6.2c0,0.2,0.1,0.4,0.2,0.6l5.1,5.1
		c0.2,0.2,0.4,0.2,0.6,0.2c0.2,0,0.4-0.1,0.6-0.2c0.3-0.3,0.3-0.8,0-1.1L2.1,6.2l4.6-4.6C7,1.3,7,0.8,6.7,0.5L6.7,0.5z M6.7,0.5"/>
	<path class="st0" d="M24.9,5.6l-5.1-5.1c-0.3-0.3-0.8-0.3-1.1,0c-0.3,0.3-0.3,0.8,0,1.1l4.6,4.6l-4.6,4.6c-0.3,0.3-0.3,0.8,0,1.1
		c0.2,0.2,0.4,0.2,0.6,0.2c0.2,0,0.4-0.1,0.6-0.2l5.2-5.2c0.2-0.2,0.2-0.4,0.2-0.6C25.1,6,25,5.8,24.9,5.6L24.9,5.6z M24.9,5.6"/>
	<path class="st0" d="M17,0.3c-0.4-0.3-0.9-0.2-1.1,0.2L8.1,10.9c-0.3,0.4-0.2,0.9,0.2,1.1c0.1,0.1,0.3,0.2,0.5,0.2
		c0.2,0,0.5-0.1,0.7-0.3l7.8-10.4C17.4,1.1,17.4,0.6,17,0.3L17,0.3z M17,0.3"/>
</g>
</svg>
