<?xml version="1.0" encoding="UTF-8" standalone="no"?>
<!-- Generator: Adobe Illustrator 19.1.1, SVG Export Plug-In . SVG Version: 6.00 Build 0)  -->

<svg
   xmlns:dc="http://purl.org/dc/elements/1.1/"
   xmlns:cc="http://creativecommons.org/ns#"
   xmlns:rdf="http://www.w3.org/1999/02/22-rdf-syntax-ns#"
   xmlns:svg="http://www.w3.org/2000/svg"
   xmlns="http://www.w3.org/2000/svg"
   xmlns:sodipodi="http://sodipodi.sourceforge.net/DTD/sodipodi-0.dtd"
   xmlns:inkscape="http://www.inkscape.org/namespaces/inkscape"
   version="1.1"
   id="Слой_1"
   x="0px"
   y="0px"
   viewBox="0 0 18.000001 18"
   xml:space="preserve"
   sodipodi:docname="icon-edit.svg"
   width="18"
   height="18"
   inkscape:version="0.92.2 (unknown)"><metadata
     id="metadata12"><rdf:RDF><cc:Work
         rdf:about=""><dc:format>image/svg+xml</dc:format><dc:type
           rdf:resource="http://purl.org/dc/dcmitype/StillImage" /><dc:title></dc:title></cc:Work></rdf:RDF></metadata><defs
     id="defs10" /><sodipodi:namedview
     pagecolor="#ffffff"
     bordercolor="#666666"
     borderopacity="1"
     objecttolerance="10"
     gridtolerance="10"
     guidetolerance="10"
     inkscape:pageopacity="0"
     inkscape:pageshadow="2"
     inkscape:window-width="1323"
     inkscape:window-height="744"
     id="namedview8"
     showgrid="false"
     fit-margin-top="0"
     fit-margin-left="0"
     fit-margin-right="0"
     fit-margin-bottom="0"
     inkscape:zoom="6.16188"
     inkscape:cx="7.9999992"
     inkscape:cy="8.1500004"
     inkscape:window-x="43"
     inkscape:window-y="24"
     inkscape:window-maximized="1"
     inkscape:current-layer="Слой_1" /><style
     type="text/css"
     id="style2">
	.st0{fill:#FFFFFF;}
</style><g
     id="Edit_1"
     transform="translate(-13.8,-9.3)"><path
       class="st0"
       d="M 29.5,15.5 V 25 c 0,1.2 -1,2.3 -2.2,2.3 H 16 c -1.2,0 -2.2,-1 -2.2,-2.3 V 13.8 c 0,-1.2 1,-2.2 2.2,-2.2 h 9.5 l -2.2,2.2 H 16 V 25 h 11.2 v -7.3 z m -1.7,-4.6 -0.8,0.8 2.4,2.4 0.8,-0.8 z m 1.6,-1.6 -0.8,0.8 2.4,2.4 0.8,-0.8 z m -10.3,10.4 2.4,2.4 7.2,-7.2 -2.4,-2.4 z m -0.8,3.1 h 2.3 l -2.3,-2.2 z m 0,0"
       id="path4"
       inkscape:connector-curvature="0"
       style="fill:#ffffff" /></g></svg>