<?xml version="1.0" encoding="utf-8"?>
<!-- Generator: Adobe Illustrator 19.1.1, SVG Export Plug-In . SVG Version: 6.00 Build 0)  -->
<svg version="1.1" id="Слой_1" xmlns="http://www.w3.org/2000/svg" xmlns:xlink="http://www.w3.org/1999/xlink" x="0px" y="0px"
	 viewBox="0 0 50 50" style="enable-background:new 0 0 50 50;" xml:space="preserve">
<style type="text/css">
	.st0{fill:#FFFFFF;}
</style>
<g id="_x31_">
	<path class="st0" d="M-368.8-111.7c-0.3,0-0.5,0.2-0.5,0.5v7.1c0,0.3,0.2,0.5,0.5,0.5h2.7c0.3,0,0.5-0.2,0.5-0.5v-7.1
		c0-0.3-0.2-0.5-0.5-0.5H-368.8z M-368.8-111.7"/>
	<path class="st0" d="M-354.9-119.2v15.1c0,0.3,0.2,0.5,0.5,0.5h2.7c0.3,0,0.5-0.2,0.5-0.5v-15.1c0-0.3-0.2-0.5-0.5-0.5h-2.7
		C-354.7-119.7-354.9-119.5-354.9-119.2L-354.9-119.2z M-354.9-119.2"/>
	<path class="st0" d="M-359.4-115.5c-0.3,0-0.5,0.2-0.5,0.5v10.9c0,0.3,0.2,0.5,0.5,0.5h2.7c0.3,0,0.5-0.2,0.5-0.5V-115
		c0-0.3-0.2-0.5-0.5-0.5H-359.4z M-359.4-115.5"/>
	<path class="st0" d="M-364.1-109.6c-0.3,0-0.5,0.2-0.5,0.5v5c0,0.3,0.2,0.5,0.5,0.5h2.7c0.3,0,0.5-0.2,0.5-0.5v-5
		c0-0.3-0.2-0.5-0.5-0.5H-364.1z M-364.1-109.6"/>
</g>
<g id="Edit_1">
	<path class="st0" d="M-306.2-115.5v9.5c0,1.2-1,2.3-2.2,2.3h-11.2c-1.2,0-2.2-1-2.2-2.3v-11.2c0-1.2,1-2.2,2.2-2.2h9.5l-2.2,2.2
		h-7.3v11.2h11.2v-7.3L-306.2-115.5z M-307.9-120.1l-0.8,0.8l2.4,2.4l0.8-0.8L-307.9-120.1z M-306.3-121.7l-0.8,0.8l2.4,2.4l0.8-0.8
		L-306.3-121.7z M-316.7-111.4l2.4,2.4l7.2-7.2l-2.4-2.4L-316.7-111.4z M-317.5-108.2h2.3l-2.3-2.2V-108.2z M-317.5-108.2"/>
</g>
<g>
	<path class="st0" d="M20.3,35.6c0,0.5,0.4,0.9,0.9,0.9h8.5c0.5,0,0.9-0.4,0.9-0.9l0.6-12.7H19.7L20.3,35.6z M27.3,26
		c0-0.2,0.2-0.4,0.4-0.4h0.6c0.2,0,0.4,0.2,0.4,0.4v7.3c0,0.2-0.2,0.4-0.4,0.4h-0.6c-0.2,0-0.4-0.2-0.4-0.4V26z M24.8,26
		c0-0.2,0.2-0.4,0.4-0.4h0.6c0.2,0,0.4,0.2,0.4,0.4v7.3c0,0.2-0.2,0.4-0.4,0.4h-0.6c-0.2,0-0.4-0.2-0.4-0.4V26z M22.2,26
		c0-0.2,0.2-0.4,0.4-0.4h0.6c0.2,0,0.4,0.2,0.4,0.4v7.3c0,0.2-0.2,0.4-0.4,0.4h-0.6c-0.2,0-0.4-0.2-0.4-0.4V26z M22.2,26"/>
	<path class="st0" d="M31.6,19.4h-3.9v-0.7c0-0.1-0.1-0.2-0.2-0.2h-4.1c-0.1,0-0.2,0.1-0.2,0.2v0.7h-3.9c-0.3,0-0.6,0.3-0.6,0.6v1.8
		h13.4v-1.8C32.1,19.6,31.9,19.4,31.6,19.4L31.6,19.4z M31.6,19.4"/>
</g>
</svg>
