<?xml version="1.0" encoding="UTF-8" standalone="no"?>
<!-- Generator: Adobe Illustrator 19.1.1, SVG Export Plug-In . SVG Version: 6.00 Build 0)  -->

<svg
   xmlns:dc="http://purl.org/dc/elements/1.1/"
   xmlns:cc="http://creativecommons.org/ns#"
   xmlns:rdf="http://www.w3.org/1999/02/22-rdf-syntax-ns#"
   xmlns:svg="http://www.w3.org/2000/svg"
   xmlns="http://www.w3.org/2000/svg"
   xmlns:sodipodi="http://sodipodi.sourceforge.net/DTD/sodipodi-0.dtd"
   xmlns:inkscape="http://www.inkscape.org/namespaces/inkscape"
   version="1.1"
   id="Слой_1"
   x="0px"
   y="0px"
   viewBox="0 0 176.60001 176.60019"
   xml:space="preserve"
   sodipodi:docname="Icon 4.svg"
   width="176.60001"
   height="176.60019"
   inkscape:version="0.92.2 (unknown)"><metadata
     id="metadata109"><rdf:RDF><cc:Work
         rdf:about=""><dc:format>image/svg+xml</dc:format><dc:type
           rdf:resource="http://purl.org/dc/dcmitype/StillImage" /><dc:title></dc:title></cc:Work></rdf:RDF></metadata><defs
     id="defs107" /><sodipodi:namedview
     pagecolor="#ffffff"
     bordercolor="#666666"
     borderopacity="1"
     objecttolerance="10"
     gridtolerance="10"
     guidetolerance="10"
     inkscape:pageopacity="0"
     inkscape:pageshadow="2"
     inkscape:window-width="1323"
     inkscape:window-height="744"
     id="namedview105"
     showgrid="false"
     fit-margin-top="0"
     fit-margin-left="0"
     fit-margin-right="0"
     fit-margin-bottom="0"
     inkscape:zoom="2.8401826"
     inkscape:cx="91.05"
     inkscape:cy="88.4"
     inkscape:window-x="43"
     inkscape:window-y="24"
     inkscape:window-maximized="1"
     inkscape:current-layer="Слой_1" /><style
     type="text/css"
     id="style77">
	.st0{fill:#00C9B3;}
	.st1{opacity:0.2;fill:url(#SVGID_1_);}
	.st2{fill:#FFFFFF;}
	.st3{fill:#FFFFFF;stroke:#FFFFFF;stroke-width:2;stroke-miterlimit:10;}
</style><g
     id="g102"
     transform="translate(-36.2,-21.299811)"><path
       class="st0"
       d="m 212.8,109.5 c 0,12.1 -2.4,23.7 -6.8,34.2 -0.4,0.8 -0.7,1.6 -1.1,2.5 -9.2,20.2 -25.8,36.3 -46.3,44.9 -0.7,0.3 -1.3,0.5 -2,0.8 -9.9,3.9 -20.8,6 -32.1,6 -48.8,0 -88.3,-39.6 -88.3,-88.3 0,-48.8 39.6,-88.3 88.3,-88.3 48.7,-0.1 88.3,39.4 88.3,88.2 z"
       id="path79"
       inkscape:connector-curvature="0"
       style="fill:#00c9b3" /><path
       d="M 163.1,115.7"
       id="path81"
       inkscape:connector-curvature="0" /><linearGradient
       id="SVGID_1_"
       gradientUnits="userSpaceOnUse"
       x1="192.763"
       y1="165.9364"
       x2="89.818298"
       y2="93.853699"><stop
         offset="0.3"
         style="stop-color:#FFFFFF"
         id="stop83" /><stop
         offset="1"
         style="stop-color:#000000"
         id="stop85" /></linearGradient><path
       class="st1"
       d="m 147.2,84.9 -0.7,0.7 c -3.9,-3.7 -8.6,-6.3 -13.7,-7.7 l -0.5,-0.4 -0.3,0.3 c -2.3,-0.6 -4.6,-0.9 -6.9,-0.9 l -0.7,-0.7 -0.6,0.6 c -2.6,0 -5.3,0.4 -7.9,1.1 l -0.7,-0.7 -1.2,1.2 c 0,0 -0.1,0 -0.1,0 -10,3.3 -17.4,11.1 -20.5,20.6 l -0.9,0.9 0.5,0.5 c -0.7,2.6 -1.2,5.4 -1.2,8.3 l -5.7,-6 c -0.7,-0.7 -1.8,-0.7 -2.5,-0.1 -0.7,0.7 -0.7,1.8 -0.1,2.5 l 8.7,9.1 c 0,0.1 0.1,0.1 0.2,0.2 l -0.7,0.7 13.3,13.3 -1.3,1.3 c -1.4,-1.4 -2.7,-2.9 -3.8,-4.7 -0.5,-0.8 -1.6,-1 -2.4,-0.5 -0.8,0.5 -1,1.6 -0.5,2.4 1.3,1.9 2.7,3.7 4.3,5.2 l -0.7,0.7 58,58 c 20.5,-8.6 37.1,-24.7 46.3,-44.9 0.4,-0.8 0.7,-1.6 1.1,-2.5 z m -52,24.2 c 0,-0.3 0,-0.5 0,-0.7 l 0.4,0.4 z m 0.3,-4 c 0.1,-0.6 0.2,-1.1 0.3,-1.7 l 0.7,0.7 z m 23.9,-23.8 -0.5,-0.5 c 0.4,-0.1 0.8,-0.2 1.2,-0.2 z m 9.6,-0.5 v 0 c 0,-0.1 0,-0.1 0,0 z m 14.4,7.9 -4,-4 c 1.6,1 3.1,2.2 4.6,3.5 z"
       id="path88"
       inkscape:connector-curvature="0"
       style="opacity:0.2;fill:url(#SVGID_1_)" /><g
       id="g100"><path
         class="st2"
         d="m 130.4,127.1 v -4.7 c 0.8,-0.1 1.4,-0.3 2,-0.6 1.5,-0.6 2.7,-1.5 3.6,-2.7 0.9,-1.2 1.3,-2.5 1.3,-3.9 0,-1.2 -0.3,-2.2 -0.8,-3.2 -0.6,-1 -1.3,-1.7 -2.3,-2.2 -0.7,-0.4 -1.6,-0.7 -2.8,-1 1.2,-0.4 2.1,-0.9 2.8,-1.5 0.7,-0.6 1.2,-1.3 1.6,-2.1 0.4,-0.8 0.6,-1.6 0.6,-2.5 0,-1.2 -0.3,-2.3 -1.1,-3.3 -0.7,-1 -1.7,-1.8 -3,-2.3 -0.5,-0.2 -1.1,-0.4 -1.8,-0.5 V 91.9 H 126 v 4.4 h -3 v -4.4 h -4.5 v 4.4 h -6.8 v 3.7 h 1 c 0.7,0 1.2,0.1 1.4,0.2 0.2,0.1 0.4,0.3 0.5,0.5 0.1,0.2 0.2,0.7 0.2,1.5 V 117 c 0,0.8 -0.1,1.3 -0.2,1.5 -0.1,0.2 -0.3,0.4 -0.5,0.5 -0.3,0.1 -0.7,0.2 -1.4,0.2 h -1 v 3.7 h 6.8 v 4.4 h 4.5 v -4.4 h 2.6 c 0.1,0 0.2,0 0.3,0 v 4.4 h 4.5 z"
         id="path90"
         inkscape:connector-curvature="0"
         style="fill:#ffffff" /><path
         class="st0"
         d="m 121.3,100.5 h 2.9 c 1.7,0 2.9,0.1 3.5,0.3 0.7,0.2 1.2,0.6 1.5,1.1 0.3,0.5 0.5,1.1 0.5,1.8 0,0.7 -0.2,1.3 -0.6,1.8 -0.4,0.5 -0.9,0.9 -1.6,1.1 -0.7,0.3 -1.9,0.4 -3.4,0.4 h -2.9 v -6.5 z"
         id="path92"
         inkscape:connector-curvature="0"
         style="fill:#00c9b3" /><path
         class="st0"
         d="M 124.9,118.5 H 123 c -0.6,0 -1,0 -1.2,-0.1 -0.1,-0.1 -0.3,-0.2 -0.3,-0.4 -0.1,-0.1 -0.1,-0.6 -0.1,-1.4 v -5.7 h 3.4 c 1.5,0 2.6,0.1 3.4,0.4 0.7,0.3 1.3,0.7 1.6,1.2 0.4,0.5 0.6,1.2 0.6,2 0,0.9 -0.3,1.7 -0.8,2.4 -0.5,0.7 -1.1,1.1 -1.9,1.3 -0.8,0.2 -1.7,0.3 -2.8,0.3 z"
         id="path94"
         inkscape:connector-curvature="0"
         style="fill:#00c9b3" /><path
         class="st3"
         d="m 103.9,105.9 -9.1,8.7 c -0.3,0.3 -0.8,0.5 -1.2,0.5 v 0 c -0.5,0 -0.9,-0.2 -1.2,-0.5 l -8.7,-9.1 c -0.7,-0.7 -0.6,-1.8 0.1,-2.5 0.7,-0.7 1.8,-0.6 2.5,0.1 l 5.7,6 c 0.2,-13.7 9,-25.9 22.2,-30.3 14,-4.7 29.5,0.7 37.5,13.2 0.5,0.8 0.3,1.9 -0.5,2.4 -0.8,0.5 -1.9,0.3 -2.4,-0.5 -7.2,-11.1 -21,-15.9 -33.5,-11.8 -11.8,4 -19.7,15 -19.8,27.3 l 6.2,-5.9 c 0.7,-0.7 1.8,-0.6 2.5,0.1 0.5,0.5 0.4,1.6 -0.3,2.3 z"
         id="path96"
         inkscape:connector-curvature="0"
         style="fill:#ffffff;stroke:#ffffff;stroke-width:2;stroke-miterlimit:10" /><path
         class="st3"
         d="m 165.2,115.7 c -0.7,0.7 -1.8,0.7 -2.5,0 l -5.9,-5.8 c -0.1,13.8 -8.9,26.1 -22.2,30.5 -3.4,1.1 -6.9,1.7 -10.3,1.7 -10.8,0 -21.1,-5.4 -27.3,-14.8 -0.5,-0.8 -0.3,-1.9 0.5,-2.4 0.8,-0.5 1.9,-0.3 2.4,0.5 7.2,11.1 21,15.9 33.5,11.7 11.8,-4 19.7,-15 19.8,-27.3 l -6,6 c -0.3,0.3 -0.8,0.5 -1.2,0.5 -0.4,0 -0.9,-0.2 -1.2,-0.5 -0.7,-0.7 -0.7,-1.8 0,-2.5 l 8.9,-8.9 c 0.7,-0.7 1.8,-0.7 2.5,0 l 8.9,8.9 c 0.7,0.6 0.7,1.7 0.1,2.4 z"
         id="path98"
         inkscape:connector-curvature="0"
         style="fill:#ffffff;stroke:#ffffff;stroke-width:2;stroke-miterlimit:10" /></g></g></svg>