<?xml version="1.0" encoding="UTF-8" standalone="no"?>
<!-- Generator: Adobe Illustrator 19.1.1, SVG Export Plug-In . SVG Version: 6.00 Build 0)  -->

<svg
   xmlns:dc="http://purl.org/dc/elements/1.1/"
   xmlns:cc="http://creativecommons.org/ns#"
   xmlns:rdf="http://www.w3.org/1999/02/22-rdf-syntax-ns#"
   xmlns:svg="http://www.w3.org/2000/svg"
   xmlns="http://www.w3.org/2000/svg"
   xmlns:sodipodi="http://sodipodi.sourceforge.net/DTD/sodipodi-0.dtd"
   xmlns:inkscape="http://www.inkscape.org/namespaces/inkscape"
   version="1.1"
   id="Слой_1"
   x="0px"
   y="0px"
   viewBox="0 0 176.7 176.60001"
   xml:space="preserve"
   sodipodi:docname="Icon 1.svg"
   width="176.7"
   height="176.60001"
   inkscape:version="0.92.2 (unknown)"><metadata
     id="metadata30"><rdf:RDF><cc:Work
         rdf:about=""><dc:format>image/svg+xml</dc:format><dc:type
           rdf:resource="http://purl.org/dc/dcmitype/StillImage" /><dc:title></dc:title></cc:Work></rdf:RDF></metadata><defs
     id="defs28" /><sodipodi:namedview
     pagecolor="#ffffff"
     bordercolor="#666666"
     borderopacity="1"
     objecttolerance="10"
     gridtolerance="10"
     guidetolerance="10"
     inkscape:pageopacity="0"
     inkscape:pageshadow="2"
     inkscape:window-width="1323"
     inkscape:window-height="744"
     id="namedview26"
     showgrid="false"
     fit-margin-top="0"
     fit-margin-left="0"
     fit-margin-right="0"
     fit-margin-bottom="0"
     inkscape:zoom="1.0776256"
     inkscape:cx="88.622034"
     inkscape:cy="248.87463"
     inkscape:window-x="43"
     inkscape:window-y="24"
     inkscape:window-maximized="1"
     inkscape:current-layer="Слой_1" /><style
     type="text/css"
     id="style2">
	.st0{fill:#00C9B3;}
	.st1{opacity:0.2;fill:url(#Тень_1_);}
	.st2{fill:none;stroke:#FFFFFF;stroke-width:5;stroke-miterlimit:10;}
	.st3{fill:#FFFFFF;}
</style><g
     id="Иконка_1"
     transform="translate(-37.7,-16)"><path
       id="Фон_5_"
       class="st0"
       d="m 214.4,104.3 c 0,11.5 -2.2,22.5 -6.2,32.5 -8.8,22.3 -26.5,40.2 -48.8,49.3 -10.3,4.2 -21.6,6.5 -33.4,6.5 C 77.2,192.6 37.7,153 37.7,104.3 37.7,55.5 77.2,16 126,16 c 48.9,0 88.4,39.5 88.4,88.3 z"
       inkscape:connector-curvature="0"
       style="fill:#00c9b3" /><g
       id="g22"><linearGradient
         id="Тень_1_"
         gradientUnits="userSpaceOnUse"
         x1="194.4539"
         y1="160.7428"
         x2="91.346901"
         y2="88.546501"><stop
           offset="0.3"
           style="stop-color:#FFFFFF"
           id="stop5" /><stop
           offset="1"
           style="stop-color:#000000"
           id="stop7" /></linearGradient><path
         id="Тень_2_"
         class="st1"
         d="m 208.3,136.9 c -8.8,22.3 -26.5,40.2 -48.8,49.3 L 96.3,123 v 0 c 0.8,-15 1.7,-30 2.5,-45 2.8,3.2 5.6,6.4 8.4,9.7 2.8,3.3 5.7,6.5 8.5,9.8 0.8,-0.7 1.6,-1.3 2.4,-2 0.7,-0.6 1.4,-1.2 2,-1.8 2.7,2.5 5.4,5 8.1,7.5 L 142.4,87 c -1.3,-1.5 -2.7,-3.1 -4,-4.6 4.9,0 9.8,-0.1 14.7,-0.1 h 0.3 c 18.3,18.1 36.6,36.3 54.9,54.6 z"
         inkscape:connector-curvature="0"
         style="opacity:0.2" /><g
         id="Иконка_2_"><g
           id="g19"><g
             id="g13"><path
               class="st2"
               d="m 96.3,78 v 44 c 0,0.5 0.5,1 1,1 h 60.3"
               id="path11"
               inkscape:connector-curvature="0"
               style="fill:none;stroke:#ffffff;stroke-width:5;stroke-miterlimit:10" /></g><g
             id="g17"><path
               class="st3"
               d="m 119.8,106.2 c 0.4,-0.4 1,-0.4 1.4,0 l 6.4,6.4 c 0.4,0.4 1,0.4 1.4,0 l 18.8,-18.8 c 0.4,-0.4 1,-0.4 1.4,0 l 3.8,3.8 c 0.4,0.4 0.7,0.3 0.7,-0.3 V 82.8 c 0,-0.5 -0.4,-1 -1,-1 h -14.4 c -0.6,0 -0.7,0.3 -0.3,0.7 l 3.6,3.6 c 0.4,0.4 0.4,1 0,1.4 l -12.8,12.8 c -0.4,0.4 -1,0.4 -1.4,0 l -6.7,-6.7 c -0.4,-0.4 -1,-0.4 -1.4,0 l -17.7,17.7 c -0.4,0.4 -0.4,1 0,1.4 l 5.1,5.1 c 0.4,0.4 1,0.4 1.4,0 z"
               id="path15"
               inkscape:connector-curvature="0"
               style="fill:#ffffff" /></g></g></g></g></g></svg>