<?xml version="1.0" encoding="utf-8"?>
<!-- Generator: Adobe Illustrator 19.1.1, SVG Export Plug-In . SVG Version: 6.00 Build 0)  -->
<svg version="1.1" id="Слой_1" xmlns="http://www.w3.org/2000/svg" xmlns:xlink="http://www.w3.org/1999/xlink" x="0px" y="0px"
	 viewBox="0 0 50 50" style="enable-background:new 0 0 50 50;" xml:space="preserve">
<style type="text/css">
	.st0{fill:#FFFFFF;}
	.st1{fill:#FFFFFF;stroke:#FFFFFF;stroke-width:0.25;stroke-miterlimit:10;}
</style>
<g id="_x31_">
	<path class="st0" d="M-368.8-111.7c-0.3,0-0.5,0.2-0.5,0.5v7.1c0,0.3,0.2,0.5,0.5,0.5h2.7c0.3,0,0.5-0.2,0.5-0.5v-7.1
		c0-0.3-0.2-0.5-0.5-0.5H-368.8z M-368.8-111.7"/>
	<path class="st0" d="M-354.9-119.2v15.1c0,0.3,0.2,0.5,0.5,0.5h2.7c0.3,0,0.5-0.2,0.5-0.5v-15.1c0-0.3-0.2-0.5-0.5-0.5h-2.7
		C-354.7-119.7-354.9-119.5-354.9-119.2L-354.9-119.2z M-354.9-119.2"/>
	<path class="st0" d="M-359.4-115.5c-0.3,0-0.5,0.2-0.5,0.5v10.9c0,0.3,0.2,0.5,0.5,0.5h2.7c0.3,0,0.5-0.2,0.5-0.5V-115
		c0-0.3-0.2-0.5-0.5-0.5H-359.4z M-359.4-115.5"/>
	<path class="st0" d="M-364.1-109.6c-0.3,0-0.5,0.2-0.5,0.5v5c0,0.3,0.2,0.5,0.5,0.5h2.7c0.3,0,0.5-0.2,0.5-0.5v-5
		c0-0.3-0.2-0.5-0.5-0.5H-364.1z M-364.1-109.6"/>
</g>
<g id="Edit_1">
	<path class="st0" d="M-306.2-115.5v9.5c0,1.2-1,2.3-2.2,2.3h-11.2c-1.2,0-2.2-1-2.2-2.3v-11.2c0-1.2,1-2.2,2.2-2.2h9.5l-2.2,2.2
		h-7.3v11.2h11.2v-7.3L-306.2-115.5z M-307.9-120.1l-0.8,0.8l2.4,2.4l0.8-0.8L-307.9-120.1z M-306.3-121.7l-0.8,0.8l2.4,2.4l0.8-0.8
		L-306.3-121.7z M-316.7-111.4l2.4,2.4l7.2-7.2l-2.4-2.4L-316.7-111.4z M-317.5-108.2h2.3l-2.3-2.2V-108.2z M-317.5-108.2"/>
</g>
<g>
	<path class="st0" d="M-275.8-104.6c0,0.5,0.4,0.9,0.9,0.9h8.5c0.5,0,0.9-0.4,0.9-0.9l0.6-12.7h-11.5L-275.8-104.6z M-268.8-114.1
		c0-0.2,0.2-0.4,0.4-0.4h0.6c0.2,0,0.4,0.2,0.4,0.4v7.3c0,0.2-0.2,0.4-0.4,0.4h-0.6c-0.2,0-0.4-0.2-0.4-0.4V-114.1z M-271.4-114.1
		c0-0.2,0.2-0.4,0.4-0.4h0.6c0.2,0,0.4,0.2,0.4,0.4v7.3c0,0.2-0.2,0.4-0.4,0.4h-0.6c-0.2,0-0.4-0.2-0.4-0.4V-114.1z M-273.9-114.1
		c0-0.2,0.2-0.4,0.4-0.4h0.6c0.2,0,0.4,0.2,0.4,0.4v7.3c0,0.2-0.2,0.4-0.4,0.4h-0.6c-0.2,0-0.4-0.2-0.4-0.4V-114.1z M-273.9-114.1"
		/>
	<path class="st0" d="M-264.6-120.8h-3.9v-0.7c0-0.1-0.1-0.2-0.2-0.2h-4.1c-0.1,0-0.2,0.1-0.2,0.2v0.7h-3.9c-0.3,0-0.6,0.3-0.6,0.6
		v1.8h13.4v-1.8C-264-120.5-264.3-120.8-264.6-120.8L-264.6-120.8z M-264.6-120.8"/>
</g>
<g>
	<path class="st1" d="M18.6,19.3c-0.3-0.3-0.8-0.3-1.1,0l-5.2,5.2c-0.2,0.2-0.2,0.4-0.2,0.6c0,0.2,0.1,0.4,0.2,0.6l5.1,5.1
		c0.2,0.2,0.4,0.2,0.6,0.2c0.2,0,0.4-0.1,0.6-0.2c0.3-0.3,0.3-0.8,0-1.1L14,25.1l4.6-4.6C18.9,20.2,18.9,19.6,18.6,19.3L18.6,19.3z
		 M18.6,19.3"/>
	<path class="st1" d="M36.8,24.5l-5.1-5.1c-0.3-0.3-0.8-0.3-1.1,0c-0.3,0.3-0.3,0.8,0,1.1l4.6,4.6l-4.6,4.6c-0.3,0.3-0.3,0.8,0,1.1
		c0.2,0.2,0.4,0.2,0.6,0.2c0.2,0,0.4-0.1,0.6-0.2l5.2-5.2c0.2-0.2,0.2-0.4,0.2-0.6C37.1,24.8,37,24.6,36.8,24.5L36.8,24.5z
		 M36.8,24.5"/>
	<path class="st1" d="M29,19.1c-0.4-0.3-0.9-0.2-1.1,0.2L20,29.7c-0.3,0.4-0.2,0.9,0.2,1.1c0.1,0.1,0.3,0.2,0.5,0.2
		c0.2,0,0.5-0.1,0.7-0.3l7.8-10.4C29.4,19.9,29.3,19.4,29,19.1L29,19.1z M29,19.1"/>
</g>
</svg>
