<?xml version="1.0" encoding="utf-8"?>
<!-- Generator: Adobe Illustrator 19.1.1, SVG Export Plug-In . SVG Version: 6.00 Build 0)  -->
<svg version="1.1" id="Слой_1" xmlns="http://www.w3.org/2000/svg" xmlns:xlink="http://www.w3.org/1999/xlink" x="0px" y="0px"
	 viewBox="0 0 13.4 18" style="enable-background:new 0 0 13.4 18;" xml:space="preserve">
<style type="text/css">
	.st0{fill:#FFFFFF;}
</style>
<g>
	<path class="st0" d="M1.6,17.1C1.6,17.6,2,18,2.5,18h8.5c0.5,0,0.9-0.4,0.9-0.9l0.6-12.7H1L1.6,17.1z M8.6,7.5
		c0-0.2,0.2-0.4,0.4-0.4h0.6c0.2,0,0.4,0.2,0.4,0.4v7.3c0,0.2-0.2,0.4-0.4,0.4H9c-0.2,0-0.4-0.2-0.4-0.4V7.5z M6,7.5
		c0-0.2,0.2-0.4,0.4-0.4H7c0.2,0,0.4,0.2,0.4,0.4v7.3c0,0.2-0.2,0.4-0.4,0.4H6.4C6.2,15.2,6,15,6,14.8V7.5z M3.5,7.5
		c0-0.2,0.2-0.4,0.4-0.4h0.6c0.2,0,0.4,0.2,0.4,0.4v7.3c0,0.2-0.2,0.4-0.4,0.4H3.8c-0.2,0-0.4-0.2-0.4-0.4V7.5z M3.5,7.5"/>
	<path class="st0" d="M12.8,0.9H8.9V0.2C8.9,0.1,8.9,0,8.8,0H4.7C4.6,0,4.5,0.1,4.5,0.2v0.7H0.6C0.3,0.9,0,1.2,0,1.5v1.8h13.4V1.5
		C13.4,1.2,13.2,0.9,12.8,0.9L12.8,0.9z M12.8,0.9"/>
</g>
</svg>
