<?xml version="1.0" encoding="UTF-8" standalone="no"?>
<!-- Generator: Adobe Illustrator 19.1.1, SVG Export Plug-In . SVG Version: 6.00 Build 0)  -->

<svg
   xmlns:dc="http://purl.org/dc/elements/1.1/"
   xmlns:cc="http://creativecommons.org/ns#"
   xmlns:rdf="http://www.w3.org/1999/02/22-rdf-syntax-ns#"
   xmlns:svg="http://www.w3.org/2000/svg"
   xmlns="http://www.w3.org/2000/svg"
   xmlns:sodipodi="http://sodipodi.sourceforge.net/DTD/sodipodi-0.dtd"
   xmlns:inkscape="http://www.inkscape.org/namespaces/inkscape"
   version="1.1"
   id="Слой_1"
   x="0px"
   y="0px"
   viewBox="0 0 176.60001 176.60001"
   xml:space="preserve"
   sodipodi:docname="Icon 3.svg"
   width="176.60001"
   height="176.60001"
   inkscape:version="0.92.2 (unknown)"><metadata
     id="metadata125"><rdf:RDF><cc:Work
         rdf:about=""><dc:format>image/svg+xml</dc:format><dc:type
           rdf:resource="http://purl.org/dc/dcmitype/StillImage" /><dc:title></dc:title></cc:Work></rdf:RDF></metadata><defs
     id="defs123" /><sodipodi:namedview
     pagecolor="#ffffff"
     bordercolor="#666666"
     borderopacity="1"
     objecttolerance="10"
     gridtolerance="10"
     guidetolerance="10"
     inkscape:pageopacity="0"
     inkscape:pageshadow="2"
     inkscape:window-width="1323"
     inkscape:window-height="744"
     id="namedview121"
     showgrid="false"
     fit-margin-top="0"
     fit-margin-left="0"
     fit-margin-right="0"
     fit-margin-bottom="0"
     inkscape:zoom="2.8401826"
     inkscape:cx="93.85"
     inkscape:cy="91.7"
     inkscape:window-x="43"
     inkscape:window-y="24"
     inkscape:window-maximized="1"
     inkscape:current-layer="Слой_1" /><style
     type="text/css"
     id="style85">
	.st0{fill:#00C9B3;}
	.st1{opacity:0.2;fill:url(#Тень_1_);}
	.st2{fill:#FFFFFF;}
	.st3{fill:none;stroke:#FFFFFF;stroke-width:4;stroke-miterlimit:10;}
</style><g
     id="Иконка_3"
     transform="translate(-33.4,-24.6)"><path
       id="Фон_3_"
       class="st0"
       d="m 210,112.9 c 0,13.1 -2.8,25.5 -7.9,36.6 -9.5,20.8 -26.9,37.3 -48.3,45.7 -9.9,3.9 -20.8,6 -32.1,6 -48.8,0 -88.3,-39.6 -88.3,-88.3 0,-48.8 39.6,-88.3 88.3,-88.3 48.7,0 88.3,39.5 88.3,88.3 z"
       inkscape:connector-curvature="0"
       style="fill:#00c9b3" /><linearGradient
       id="Тень_1_"
       gradientUnits="userSpaceOnUse"
       x1="188.5889"
       y1="171.30141"
       x2="84.799797"
       y2="98.627502"><stop
         offset="0.3"
         style="stop-color:#FFFFFF"
         id="stop88" /><stop
         offset="1"
         style="stop-color:#000000"
         id="stop90" /></linearGradient><path
       id="Тень"
       class="st1"
       d="m 202,149.5 c -9.5,20.8 -26.9,37.3 -48.3,45.7 L 91.6,133.1 v 0 c 0.6,-15.6 1.3,-31.3 1.9,-46.9 6.5,5.9 13.1,11.8 19.6,17.7 v -8.2 h 8.5 v 0.1 l 7.8,7.8 h 4 v 0 l 0.3,0.3 2.8,-2.8 v -8.6 h 8.5 v 0.1 0 z"
       inkscape:connector-curvature="0"
       style="opacity:0.2" /><g
       id="Иконка"><g
         id="g116"><g
           id="g110"><g
             id="g96"><path
               class="st2"
               d="m 101.1,110.7 c 0,-0.5 0.5,-1 1,-1 h 6.5 c 0.6,0 1,0.5 1,1 v 13.9 c 0,0.6 -0.4,1 -1,1 h -6.5 c -0.5,0 -1,-0.4 -1,-1 z"
               id="path94"
               inkscape:connector-curvature="0"
               style="fill:#ffffff" /></g><g
             id="g100"><path
               class="st2"
               d="m 113.1,94.8 c 0,-0.6 0.5,-1 1,-1 h 6.6 c 0.6,0 1,0.4 1,1 v 29.8 c 0,0.5 -0.4,1 -1,1 h -6.6 c -0.5,0 -1,-0.5 -1,-1 z"
               id="path98"
               inkscape:connector-curvature="0"
               style="fill:#ffffff" /></g><g
             id="g104"><path
               class="st2"
               d="m 124.9,102.7 c 0,-0.5 0.4,-1 1,-1 h 6.6 c 0.6,0 1,0.5 1,1 v 21.9 c 0,0.6 -0.4,1 -1,1 h -6.6 c -0.6,0 -1,-0.4 -1,-1 z"
               id="path102"
               inkscape:connector-curvature="0"
               style="fill:#ffffff" /></g><g
             id="g108"><path
               class="st2"
               d="m 136.5,91.5 c 0,-0.6 0.4,-1 1,-1 h 6.5 c 0.5,0 1,0.4 1,1 v 33.1 c 0,0.5 -0.5,1 -1,1 h -6.5 c -0.6,0 -1,-0.5 -1,-1 z"
               id="path106"
               inkscape:connector-curvature="0"
               style="fill:#ffffff" /></g></g><g
           id="g114"><path
             class="st3"
             d="m 91.6,86.2 v 43.9 c 0,0.6 0.5,1 1,1 h 60.3"
             id="path112"
             inkscape:connector-curvature="0"
             style="fill:none;stroke:#ffffff;stroke-width:4;stroke-miterlimit:10" /></g></g></g></g></svg>