<?xml version="1.0" encoding="UTF-8" standalone="no"?>
<!-- Generator: Adobe Illustrator 19.1.1, SVG Export Plug-In . SVG Version: 6.00 Build 0)  -->

<svg
   xmlns:dc="http://purl.org/dc/elements/1.1/"
   xmlns:cc="http://creativecommons.org/ns#"
   xmlns:rdf="http://www.w3.org/1999/02/22-rdf-syntax-ns#"
   xmlns:svg="http://www.w3.org/2000/svg"
   xmlns="http://www.w3.org/2000/svg"
   xmlns:sodipodi="http://sodipodi.sourceforge.net/DTD/sodipodi-0.dtd"
   xmlns:inkscape="http://www.inkscape.org/namespaces/inkscape"
   version="1.1"
   id="Слой_1"
   x="0px"
   y="0px"
   viewBox="0 0 245.19999 13"
   xml:space="preserve"
   sodipodi:docname="Divide.svg"
   width="245.2"
   height="13"
   inkscape:version="0.92.2 (unknown)"><metadata
     id="metadata62"><rdf:RDF><cc:Work
         rdf:about=""><dc:format>image/svg+xml</dc:format><dc:type
           rdf:resource="http://purl.org/dc/dcmitype/StillImage" /><dc:title></dc:title></cc:Work></rdf:RDF></metadata><defs
     id="defs60" /><sodipodi:namedview
     pagecolor="#ffffff"
     bordercolor="#666666"
     borderopacity="1"
     objecttolerance="10"
     gridtolerance="10"
     guidetolerance="10"
     inkscape:pageopacity="0"
     inkscape:pageshadow="2"
     inkscape:window-width="1323"
     inkscape:window-height="744"
     id="namedview58"
     showgrid="false"
     fit-margin-top="0"
     fit-margin-left="0"
     fit-margin-right="0"
     fit-margin-bottom="0"
     inkscape:zoom="1.1545555"
     inkscape:cx="122.75"
     inkscape:cy="6.5500008"
     inkscape:window-x="43"
     inkscape:window-y="24"
     inkscape:window-maximized="1"
     inkscape:current-layer="Слой_1" /><style
     type="text/css"
     id="style2">
	.st0{fill:#ADAFB2;}
	.st1{fill:#353535;}
</style><g
     id="Разделитель"
     transform="translate(-12.8,-47.6)"><g
       id="g52"><g
         id="g26"><g
           id="g24"><path
             class="st0"
             d="m 14.6,52 c 0,0.5 -0.4,0.9 -0.9,0.9 -0.5,0 -0.9,-0.4 -0.9,-0.9 0,-0.5 0.4,-0.9 0.9,-0.9 0.5,0 0.9,0.4 0.9,0.9 z"
             id="path4"
             inkscape:connector-curvature="0"
             style="fill:#adafb2" /><path
             class="st0"
             d="m 23.1,52 c 0,0.5 -0.4,0.9 -0.9,0.9 -0.5,0 -0.9,-0.4 -0.9,-0.9 0,-0.5 0.4,-0.9 0.9,-0.9 0.5,0 0.9,0.4 0.9,0.9 z"
             id="path6"
             inkscape:connector-curvature="0"
             style="fill:#adafb2" /><path
             class="st0"
             d="m 31.6,52 c 0,0.5 -0.4,0.9 -0.9,0.9 -0.5,0 -0.9,-0.4 -0.9,-0.9 0,-0.5 0.4,-0.9 0.9,-0.9 0.5,0 0.9,0.4 0.9,0.9 z"
             id="path8"
             inkscape:connector-curvature="0"
             style="fill:#adafb2" /><path
             class="st0"
             d="m 40.1,52 c 0,0.5 -0.4,0.9 -0.9,0.9 -0.5,0 -0.9,-0.4 -0.9,-0.9 0,-0.5 0.4,-0.9 0.9,-0.9 0.5,0 0.9,0.4 0.9,0.9 z"
             id="path10"
             inkscape:connector-curvature="0"
             style="fill:#adafb2" /><path
             class="st0"
             d="m 48.5,52 c 0,0.5 -0.4,0.9 -0.9,0.9 -0.5,0 -0.9,-0.4 -0.9,-0.9 0,-0.5 0.4,-0.9 0.9,-0.9 0.6,0 0.9,0.4 0.9,0.9 z"
             id="path12"
             inkscape:connector-curvature="0"
             style="fill:#adafb2" /><path
             class="st0"
             d="m 57,52 c 0,0.5 -0.4,0.9 -0.9,0.9 -0.5,0 -0.9,-0.4 -0.9,-0.9 0,-0.5 0.4,-0.9 0.9,-0.9 0.6,0 0.9,0.4 0.9,0.9 z"
             id="path14"
             inkscape:connector-curvature="0"
             style="fill:#adafb2" /><path
             class="st0"
             d="m 65.5,52 c 0,0.5 -0.4,0.9 -0.9,0.9 -0.5,0 -0.9,-0.4 -0.9,-0.9 0,-0.5 0.4,-0.9 0.9,-0.9 0.6,0 0.9,0.4 0.9,0.9 z"
             id="path16"
             inkscape:connector-curvature="0"
             style="fill:#adafb2" /><path
             class="st0"
             d="m 74,52 c 0,0.5 -0.4,0.9 -0.9,0.9 -0.5,0 -0.9,-0.4 -0.9,-0.9 0,-0.5 0.4,-0.9 0.9,-0.9 0.6,0 0.9,0.4 0.9,0.9 z"
             id="path18"
             inkscape:connector-curvature="0"
             style="fill:#adafb2" /><path
             class="st0"
             d="m 82.5,52 c 0,0.5 -0.4,0.9 -0.9,0.9 -0.5,0 -0.9,-0.4 -0.9,-0.9 0,-0.5 0.4,-0.9 0.9,-0.9 0.6,0 0.9,0.4 0.9,0.9 z"
             id="path20"
             inkscape:connector-curvature="0"
             style="fill:#adafb2" /><path
             class="st0"
             d="m 91,52 c 0,0.5 -0.4,0.9 -0.9,0.9 -0.5,0 -0.9,-0.4 -0.9,-0.9 0,-0.5 0.4,-0.9 0.9,-0.9 0.6,0 0.9,0.4 0.9,0.9 z"
             id="path22"
             inkscape:connector-curvature="0"
             style="fill:#adafb2" /></g></g><g
         id="g50"><g
           id="g48"><path
             class="st0"
             d="m 181.6,52 c 0,0.5 -0.4,0.9 -0.9,0.9 -0.5,0 -0.9,-0.4 -0.9,-0.9 0,-0.5 0.4,-0.9 0.9,-0.9 0.5,0 0.9,0.4 0.9,0.9 z"
             id="path28"
             inkscape:connector-curvature="0"
             style="fill:#adafb2" /><path
             class="st0"
             d="m 190.1,52 c 0,0.5 -0.4,0.9 -0.9,0.9 -0.5,0 -0.9,-0.4 -0.9,-0.9 0,-0.5 0.4,-0.9 0.9,-0.9 0.5,0 0.9,0.4 0.9,0.9 z"
             id="path30"
             inkscape:connector-curvature="0"
             style="fill:#adafb2" /><path
             class="st0"
             d="m 198.6,52 c 0,0.5 -0.4,0.9 -0.9,0.9 -0.5,0 -0.9,-0.4 -0.9,-0.9 0,-0.5 0.4,-0.9 0.9,-0.9 0.5,0 0.9,0.4 0.9,0.9 z"
             id="path32"
             inkscape:connector-curvature="0"
             style="fill:#adafb2" /><path
             class="st0"
             d="m 207.1,52 c 0,0.5 -0.4,0.9 -0.9,0.9 -0.5,0 -0.9,-0.4 -0.9,-0.9 0,-0.5 0.4,-0.9 0.9,-0.9 0.5,0 0.9,0.4 0.9,0.9 z"
             id="path34"
             inkscape:connector-curvature="0"
             style="fill:#adafb2" /><path
             class="st0"
             d="m 215.5,52 c 0,0.5 -0.4,0.9 -0.9,0.9 -0.5,0 -0.9,-0.4 -0.9,-0.9 0,-0.5 0.4,-0.9 0.9,-0.9 0.5,0 0.9,0.4 0.9,0.9 z"
             id="path36"
             inkscape:connector-curvature="0"
             style="fill:#adafb2" /><path
             class="st0"
             d="m 224,52 c 0,0.5 -0.4,0.9 -0.9,0.9 -0.5,0 -0.9,-0.4 -0.9,-0.9 0,-0.5 0.4,-0.9 0.9,-0.9 0.5,0 0.9,0.4 0.9,0.9 z"
             id="path38"
             inkscape:connector-curvature="0"
             style="fill:#adafb2" /><path
             class="st0"
             d="m 232.5,52 c 0,0.5 -0.4,0.9 -0.9,0.9 -0.5,0 -0.9,-0.4 -0.9,-0.9 0,-0.5 0.4,-0.9 0.9,-0.9 0.5,0 0.9,0.4 0.9,0.9 z"
             id="path40"
             inkscape:connector-curvature="0"
             style="fill:#adafb2" /><path
             class="st0"
             d="m 241,52 c 0,0.5 -0.4,0.9 -0.9,0.9 -0.5,0 -0.9,-0.4 -0.9,-0.9 0,-0.5 0.4,-0.9 0.9,-0.9 0.5,0 0.9,0.4 0.9,0.9 z"
             id="path42"
             inkscape:connector-curvature="0"
             style="fill:#adafb2" /><path
             class="st0"
             d="m 249.5,52 c 0,0.5 -0.4,0.9 -0.9,0.9 -0.5,0 -0.9,-0.4 -0.9,-0.9 0,-0.5 0.4,-0.9 0.9,-0.9 0.5,0 0.9,0.4 0.9,0.9 z"
             id="path44"
             inkscape:connector-curvature="0"
             style="fill:#adafb2" /><path
             class="st0"
             d="m 258,52 c 0,0.5 -0.4,0.9 -0.9,0.9 -0.5,0 -0.9,-0.4 -0.9,-0.9 0,-0.5 0.4,-0.9 0.9,-0.9 0.5,0 0.9,0.4 0.9,0.9 z"
             id="path46"
             inkscape:connector-curvature="0"
             style="fill:#adafb2" /></g></g></g><path
       class="st1"
       d="m 142.9,47.6 -7.5,13 -7.5,-13 c 2.5,1 5.1,2 7.6,3 2.5,-1 4.9,-2 7.4,-3 z"
       id="path54"
       inkscape:connector-curvature="0"
       style="fill:#353535" /></g></svg>