<?xml version="1.0" encoding="utf-8"?>
<!-- Generator: Adobe Illustrator 19.1.1, SVG Export Plug-In . SVG Version: 6.00 Build 0)  -->
<svg version="1.1" id="Слой_1" xmlns="http://www.w3.org/2000/svg" xmlns:xlink="http://www.w3.org/1999/xlink" x="0px" y="0px"
	 viewBox="0 0 30 26.9" style="enable-background:new 0 0 30 26.9;" xml:space="preserve">
<style type="text/css">
	.st0{fill:#FFFFFF;}
</style>
<g>
	<path class="st0" d="M28.9,9.2c-0.6,0-1.1,0.5-1.1,1.1v14.6H2.1V10.2c0-0.6-0.5-1.1-1.1-1.1S0,9.6,0,10.2v15.6
		c0,0.6,0.5,1.1,1.1,1.1h27.9c0.6,0,1.1-0.5,1.1-1.1V10.2C30,9.6,29.5,9.2,28.9,9.2L28.9,9.2z M28.9,9.2"/>
	<path class="st0" d="M15.7,0.3C15.6,0.1,15.3,0,15,0c-0.3,0-0.5,0.1-0.7,0.3L9.7,4.9C9.3,5.3,9.3,6,9.7,6.4c0.4,0.4,1.1,0.4,1.5,0
		l2.8-2.8l0,15.9c0,0.6,0.5,1.1,1.1,1.1c0.6,0,1.1-0.5,1.1-1.1l0-15.9l2.8,2.8c0.4,0.4,1.1,0.4,1.5,0c0.4-0.4,0.4-1.1,0-1.5
		L15.7,0.3z M15.7,0.3"/>
</g>
</svg>
